<?xml version="1.0" encoding="UTF-8" standalone="no"?>
<svg
   xmlns:dc="http://purl.org/dc/elements/1.1/"
   xmlns:cc="http://creativecommons.org/ns#"
   xmlns:rdf="http://www.w3.org/1999/02/22-rdf-syntax-ns#"
   xmlns:svg="http://www.w3.org/2000/svg"
   xmlns="http://www.w3.org/2000/svg"
   xmlns:sodipodi="http://sodipodi.sourceforge.net/DTD/sodipodi-0.dtd"
   xmlns:inkscape="http://www.inkscape.org/namespaces/inkscape"
   inkscape:version="1.0 (4035a4fb49, 2020-05-01)"
   sodipodi:docname="background@108px.svg"
   id="svg3383"
   viewBox="0 0 108 108"
   height="108"
   width="108"
   version="1.1">
  <metadata
     id="metadata3387">
    <rdf:RDF>
      <cc:Work
         rdf:about="">
        <dc:format>image/svg+xml</dc:format>
        <dc:type
           rdf:resource="http://purl.org/dc/dcmitype/StillImage" />
        <dc:title></dc:title>
      </cc:Work>
    </rdf:RDF>
  </metadata>
  <sodipodi:namedview
     inkscape:current-layer="svg3383"
     inkscape:window-maximized="1"
     inkscape:window-y="-9"
     inkscape:window-x="1911"
     inkscape:cy="64"
     inkscape:cx="64"
     inkscape:zoom="7.875"
     showgrid="false"
     id="namedview3385"
     inkscape:window-height="2081"
     inkscape:window-width="3840"
     inkscape:pageshadow="2"
     inkscape:pageopacity="0"
     guidetolerance="10"
     gridtolerance="10"
     objecttolerance="10"
     borderopacity="1"
     bordercolor="#666666"
     pagecolor="#ffffff" />
  <defs
     id="defs3355">
    <mask
       height="128"
       width="128"
       id="m">
      <rect
         id="rect3352"
         fill="#ffffff"
         height="128"
         width="128"
         y="0"
         x="0" />
    </mask>
  </defs>
  <g
     transform="scale(0.84375)"
     id="g3381"
     mask="url(#m)">
    <g
       id="g3379"
       transform="matrix(2.3,0,0,2.3,-34.5,0)">
      <path
         id="path3357"
         stroke-width="3.78"
         fill="#6f63c4"
         d="m 162,56 h 50 V 11.3 h -50 z" />
      <path
         id="path3359"
         stroke-width="3.78"
         fill="#564ec2"
         d="M 148,0 H 99.7 l 20.7,56 h 35.2 L 175.3,45.3 148.1,0 Z" />
      <path
         id="path3361"
         stroke-width="3.78"
         fill="#4543bb"
         d="m 172,0 h -55.3 l 58.6,45.3 z" />
      <path
         id="path3363"
         stroke-width="3.78"
         fill="#4340b6"
         d="M 212,18.9 V 0 h -46.2 l 9.52,45.3 31.4,2.49 5.3,-28.8 z" />
      <path
         id="path3365"
         stroke-width="3.78"
         fill="#6860c4"
         d="m 152,56 h 29.7 L 175.32,45.3 151.92,56 Z" />
      <path
         id="path3367"
         stroke-width="3.78"
         fill="#4244c2"
         d="M 112,0 H 74.2 v 24.9 h 5.99 l -3.66,9.1 0.893,22 h 42.8 l 1.41,-14.7 -8.32,-16.3 -1.33,-0.256 v -24.7 z" />
      <path
         id="path3369"
         stroke-width="3.78"
         fill="#3739c0"
         d="M 112,0 H 72.9 l 11.8,18.4 z" />
      <path
         id="path3371"
         stroke-width="3.78"
         fill="#6058c4"
         d="M 16.1,56 H 81.9 V 15.1 H 16.1 Z" />
      <path
         id="path3373"
         stroke-width="3.78"
         fill="#504cc1"
         d="M 86.5,0 H 29.2 l -6.37,56 h 6.04 L 84.77,18.4 86.54,0 Z" />
      <path
         id="path3375"
         stroke-width="3.78"
         fill="#554fc3"
         d="M 0.643,0 H 0 V 56 H 31.4 L 34.81,52.1 0.61,0 Z" />
      <path
         id="path3377"
         stroke-width="3.78"
         fill="#4846bf"
         d="M 38,0 H 0 v 2.14 l 35.1,49.4 2.93,-51.5 z" />
    </g>
  </g>
</svg>
