<?xml version="1.0" encoding="utf-8"?>
<svg width="209" height="56" version="1.1" xmlns="http://www.w3.org/2000/svg">
  <path d="m0 56 17-56h14s-16.7 56-17 56h-14z" fill="#fff" />
  <path d="m42.9 0l-17 56h10.6 3.44 37.7 9.22 4.78c0.171 0 4.29-14 8.5-28h-14l-4.25 14h-37.6c5.04-16.6 12.6-42 12.6-42h-14z" fill="#fff" />
  <path d="m68.7 0l-8.5 28h14c4.21-14 8.5-28 8.5-28h-14z" fill="#fff" />
  <path d="m90.3 14h14c1.57-5.25 4.25-14 4.25-14h-14l-4.25 14z" fill="#fff" />
  <path d="m122 42h-14l-4.25 14h14c0.0855 0 2.64-8.75 4.25-14z" fill="#fff" />
  <path d="m142 14l-12.8 42h14c0.256 0 8.05-26.3 12.8-42h-14z" fill="#fff" />
  <path d="m168 14l-12.8 42h10.7 3.33 20.5 5.32c0.256 0 8.05-26.2 12.8-42h-14-11.8-14.1zm9.86 14h11.8l-4.25 14h-11.7c1.3-4.26 2.76-9.15 4.21-14z" fill="#fff" />
</svg>