<?xml version="1.0" encoding="UTF-8"?>
<svg width="212" height="56" version="1.1" viewBox="0 0 212 56" xmlns="http://www.w3.org/2000/svg" xmlns:cc="http://creativecommons.org/ns#" xmlns:dc="http://purl.org/dc/elements/1.1/" xmlns:rdf="http://www.w3.org/1999/02/22-rdf-syntax-ns#">
 <defs>
  <mask id="mask4607" maskUnits="userSpaceOnUse">
   <path d="m172-0.04-17.1 56.1h40.1l17.1-56.1h-26zm9.75 14h12l-8.54 28h-12z" fill="#fff"/>
   <path d="m159-0.04h-14l-17 55.9h14z" fill="#fff" stroke-width="3.78"/>
   <path d="m107 42-4.28 14h14l4.28-14z" fill="#fff"/>
   <path d="m93.6-0.04-4.28 14h14l4.28-14z" fill="#fff"/>
   <path d="m68.6-0.04-8.54 28h14l8.54-28z" fill="#fff"/>
   <path d="m43.5-0.04-17.1 56.1h64.1l8.54-28h-14l-4.28 14h-36.1l12.8-42.1z" fill="#fff"/>
   <path d="m32.4-0.04h-14l-17 55.9h14z" fill="#fff" stroke-width="3.78"/>
  </mask>
 </defs>
 <metadata>
  <rdf:RDF>
   <cc:Work rdf:about="">
    <dc:format>image/svg+xml</dc:format>
    <dc:type rdf:resource="http://purl.org/dc/dcmitype/StillImage"/>
    <dc:title/>
   </cc:Work>
  </rdf:RDF>
 </metadata>
 <g mask="url(#mask4607)" stroke-width="3.78">
  <rect x="162" y="11.3" width="57.1" height="49.9" fill="#6f63c4"/>
  <path d="m175 45.3-34.7 18.7-17.8-1.16-25.6-69.2 45.7-1.83" fill="#564ec2"/>
  <path d="m175 45.3-63.9-49.9 60.9-0.892" fill="#4543bb"/>
  <path d="m165-3.82 9.37 47.6 32.3 4.01 9.45-51.4-40.4-3.48" fill="#4340b6"/>
  <path d="m184 60.4-8.85-15.5-31.1 14.6" fill="#6860c4"/>
  <rect x="74.7" y="-11.4" width="37.8" height="36.3" fill="#4244c2"/>
  <rect x="16.1" y="15.1" width="65.8" height="48.8" fill="#6058c4"/>
  <path d="m78.1 60.4-1.07-26.4 6.5-10 30.3 0.983 8.32 16.3-1.78 18.6" fill="#4244c2"/>
  <path d="m63-15.2 21.5 33.6 33-22.2" fill="#3739c0"/>
  <path d="m22.3 60.4 62.4-42 3.02-31.5-57.5 3.89" fill="#504cc1"/>
  <path d="m-9.34-15.2 44.2 67.3-42 48" fill="#554fc3"/>
  <path d="m-6.92-7.6 42 57.1 3.4-57.8" fill="#4846bf"/>
 </g>
</svg>
