<svg width="212" height="56" version="1.1" viewBox="0 0 212 56" xmlns="http://www.w3.org/2000/svg">
 <path d="m162 56h50v-44.7h-50v44.7z" fill="#6f63c4" stroke-width="3.78"/>
 <path d="m148 0h-48.3l20.7 56h35.2l19.7-10.7-27.2-45.3z" fill="#564ec2" stroke-width="3.78"/>
 <path d="m172 0h-55.3l58.6 45.3-3.3-45.3z" fill="#4543bb" stroke-width="3.78"/>
 <path d="m212 18.9v-18.9h-46.2l9.52 45.3 31.4 2.49 5.3-28.8z" fill="#4340b6" stroke-width="3.78"/>
 <path d="m152 56h29.7l-6.38-10.7-23.4 10.7z" fill="#6860c4" stroke-width="3.78"/>
 <path d="m112 0h-37.8v24.9h5.99l-3.66 9.1 0.893 22h42.8l1.41-14.7-8.32-16.3-1.33-0.256v-24.7z" fill="#4244c2" stroke-width="3.78"/>
 <path d="m112 0h-39.1l11.8 18.4 27.3-18.4z" fill="#3739c0" stroke-width="3.78"/>
 <path d="m16.1 56h65.8v-40.9h-65.8v40.9z" fill="#6058c4" stroke-width="3.78"/>
 <path d="m86.5 0h-57.3l-6.37 56h6.04l55.9-37.6 1.77-18.4z" fill="#504cc1" stroke-width="3.78"/>
 <path d="m0.643 0h-0.643v56h31.4l3.41-3.9-34.2-52.1z" fill="#554fc3" stroke-width="3.78"/>
 <path d="m38 0h-38v2.14l35.1 49.4 2.93-51.5z" fill="#4846bf" stroke-width="3.78"/>
</svg>
